<svg xmlns="http://www.w3.org/2000/svg" width="1640" zoomAndPan="magnify" viewBox="0 0 1230 374.999991" height="500"
     preserveAspectRatio="xMidYMid meet" version="1.0"><defs><clipPath id="id1"><path d="M 678.828125 99.257812 L 855.527344 99.257812 L 855.527344 275.960938 L 678.828125 275.960938 Z M 678.828125 99.257812 "/></clipPath></defs><path fill="rgb(0%, 0%, 0%)" d="M 290.0625 100.847656 L 290.0625 282.648438 L 245.644531 282.648438 L 245.644531 173.617188 L 204.859375 282.648438 L 169.011719 282.648438 L 127.96875 173.359375 L 127.96875 282.648438 L 83.546875 282.648438 L 83.546875 100.847656 L 136.023438 100.847656 L 187.195312 226.707031 L 237.851562 100.847656 Z M 396.570312 230.761719 C 396.570312 233.644531 396.390625 236.648438 396.03125 239.769531 L 326.09375 239.769531 C 326.578125 246.015625 328.566406 250.820312 332.058594 254.183594 C 335.671875 257.425781 340.070312 259.046875 345.25 259.046875 C 352.960938 259.046875 358.320312 255.804688 361.332031 249.320312 L 394.222656 249.320312 C 392.535156 255.925781 389.464844 261.871094 385.007812 267.152344 C 380.667969 272.4375 375.1875 276.582031 368.5625 279.585938 C 361.9375 282.585938 354.527344 284.089844 346.335938 284.089844 C 336.457031 284.089844 327.660156 281.988281 319.953125 277.785156 C 312.242188 273.578125 306.21875 267.574219 301.878906 259.769531 C 297.542969 251.960938 295.375 242.832031 295.375 232.382812 C 295.375 221.933594 297.484375 212.808594 301.699219 205 C 306.035156 197.191406 312.058594 191.1875 319.769531 186.984375 C 327.480469 182.78125 336.335938 180.679688 346.335938 180.679688 C 356.09375 180.679688 364.765625 182.71875 372.355469 186.804688 C 379.945312 190.886719 385.847656 196.710938 390.066406 204.277344 C 394.402344 211.847656 396.570312 220.671875 396.570312 230.761719 Z M 364.949219 222.65625 C 364.949219 217.371094 363.140625 213.167969 359.527344 210.042969 C 355.914062 206.921875 351.394531 205.359375 345.972656 205.359375 C 340.792969 205.359375 336.394531 206.863281 332.78125 209.863281 C 329.289062 212.867188 327.121094 217.128906 326.277344 222.65625 Z M 432.933594 149.332031 L 432.933594 282.648438 L 402.03125 282.648438 L 402.03125 149.332031 Z M 438.339844 232.203125 C 438.339844 221.875 440.265625 212.808594 444.121094 205 C 448.097656 197.191406 453.457031 191.1875 460.203125 186.984375 C 466.953125 182.78125 474.480469 180.679688 482.792969 180.679688 C 489.902344 180.679688 496.105469 182.121094 501.40625 185.003906 C 506.828125 187.886719 510.984375 191.667969 513.875 196.351562 L 513.875 182.121094 L 544.777344 182.121094 L 544.777344 282.648438 L 513.875 282.648438 L 513.875 268.414062 C 510.863281 273.097656 506.648438 276.882812 501.226562 279.765625 C 495.925781 282.648438 489.71875 284.089844 482.613281 284.089844 C 474.421875 284.089844 466.953125 281.988281 460.203125 277.785156 C 453.457031 273.460938 448.097656 267.394531 444.121094 259.585938 C 440.265625 251.660156 438.339844 242.53125 438.339844 232.203125 Z M 513.875 232.382812 C 513.875 224.695312 511.707031 218.632812 507.371094 214.1875 C 503.152344 209.746094 497.972656 207.523438 491.828125 207.523438 C 485.683594 207.523438 480.445312 209.746094 476.105469 214.1875 C 471.890625 218.511719 469.78125 224.515625 469.78125 232.203125 C 469.78125 239.890625 471.890625 246.015625 476.105469 250.578125 C 480.445312 255.023438 485.683594 257.246094 491.828125 257.246094 C 497.972656 257.246094 503.152344 255.023438 507.371094 250.578125 C 511.707031 246.136719 513.875 240.070312 513.875 232.382812 Z M 617.730469 181.039062 C 629.535156 181.039062 638.929688 184.882812 645.921875 192.570312 C 653.027344 200.136719 656.585938 210.585938 656.585938 223.917969 L 656.585938 282.648438 L 625.863281 282.648438 L 625.863281 228.058594 C 625.863281 221.332031 624.113281 216.109375 620.621094 212.386719 C 617.128906 208.664062 612.429688 206.800781 606.527344 206.800781 C 600.621094 206.800781 595.925781 208.664062 592.429688 212.386719 C 588.9375 216.109375 587.191406 221.332031 587.191406 228.058594 L 587.191406 282.648438 L 556.289062 282.648438 L 556.289062 182.121094 L 587.191406 182.121094 L 587.191406 195.453125 C 590.320312 191.007812 594.539062 187.523438 599.839844 185.003906 C 605.140625 182.359375 611.105469 181.039062 617.730469 181.039062 Z M 996.804688 181.039062 C 1009.332031 181.039062 1019.269531 184.820312 1026.625 192.390625 C 1034.089844 199.957031 1037.828125 210.464844 1037.828125 223.917969 L 1037.828125 282.648438 L 1007.105469 282.648438 L 1007.105469 228.058594 C 1007.105469 221.574219 1005.355469 216.589844 1001.867188 213.105469 C 998.488281 209.503906 993.789062 207.703125 987.769531 207.703125 C 981.746094 207.703125 976.984375 209.503906 973.496094 213.105469 C 970.117188 216.589844 968.433594 221.574219 968.433594 228.058594 L 968.433594 282.648438 L 937.714844 282.648438 L 937.714844 228.058594 C 937.714844 221.574219 935.964844 216.589844 932.472656 213.105469 C 929.097656 209.503906 924.398438 207.703125 918.378906 207.703125 C 912.355469 207.703125 907.59375 209.503906 904.101562 213.105469 C 900.726562 216.589844 899.042969 221.574219 899.042969 228.058594 L 899.042969 282.648438 L 868.140625 282.648438 L 868.140625 182.121094 L 899.042969 182.121094 L 899.042969 194.730469 C 902.171875 190.527344 906.273438 187.222656 911.332031 184.820312 C 916.390625 182.300781 922.113281 181.039062 928.5 181.039062 C 936.089844 181.039062 942.832031 182.660156 948.738281 185.902344 C 954.757812 189.144531 959.457031 193.769531 962.832031 199.773438 C 966.324219 194.25 971.082031 189.746094 977.109375 186.261719 C 983.128906 182.78125 989.695312 181.039062 996.804688 181.039062 Z M 1042.453125 232.203125 C 1042.453125 221.875 1044.378906 212.808594 1048.234375 205 C 1052.210938 197.191406 1057.570312 191.1875 1064.316406 186.984375 C 1071.058594 182.78125 1078.59375 180.679688 1086.90625 180.679688 C 1094.011719 180.679688 1100.214844 182.121094 1105.519531 185.003906 C 1110.941406 187.886719 1115.097656 191.667969 1117.988281 196.351562 L 1117.988281 182.121094 L 1148.890625 182.121094 L 1148.890625 282.648438 L 1117.988281 282.648438 L 1117.988281 268.414062 C 1114.972656 273.097656 1110.757812 276.882812 1105.339844 279.765625 C 1100.035156 282.648438 1093.828125 284.089844 1086.726562 284.089844 C 1078.53125 284.089844 1071.058594 281.988281 1064.316406 277.785156 C 1057.570312 273.460938 1052.210938 267.394531 1048.234375 259.585938 C 1044.378906 251.660156 1042.453125 242.53125 1042.453125 232.203125 Z M 1117.988281 232.382812 C 1117.988281 224.695312 1115.820312 218.632812 1111.484375 214.1875 C 1107.265625 209.746094 1102.085938 207.523438 1095.941406 207.523438 C 1089.796875 207.523438 1084.558594 209.746094 1080.21875 214.1875 C 1076 218.511719 1073.894531 224.515625 1073.894531 232.203125 C 1073.894531 239.890625 1076 246.015625 1080.21875 250.578125 C 1084.558594 255.023438 1089.796875 257.246094 1095.941406 257.246094 C 1102.085938 257.246094 1107.265625 255.023438 1111.484375 250.578125 C 1115.820312 246.136719 1117.988281 240.070312 1117.988281 232.382812 Z M 1117.988281 232.382812 " fill-opacity="1"/><path fill="rgb(23.139954%, 34.899902%, 59.609985%)" d="M 765.03125 284.578125 C 746.769531 284.578125 729.980469 280.347656 714.671875 271.890625 C 699.542969 263.429688 687.460938 251.660156 678.421875 236.578125 C 669.566406 221.3125 665.140625 204.210938 665.140625 185.265625 C 665.140625 166.324219 669.566406 149.3125 678.421875 134.230469 C 687.460938 119.152344 699.542969 107.378906 714.671875 98.921875 C 729.980469 90.460938 746.769531 86.230469 765.03125 86.230469 C 783.292969 86.230469 799.988281 90.460938 815.117188 98.921875 C 830.425781 107.378906 842.417969 119.152344 851.089844 134.230469 C 859.941406 149.3125 864.371094 166.324219 864.371094 185.265625 C 864.371094 204.210938 859.941406 221.3125 851.089844 236.578125 C 842.234375 251.660156 830.246094 263.429688 815.117188 271.890625 C 799.988281 280.347656 783.292969 284.578125 765.03125 284.578125 Z M 765.03125 241.542969 C 780.527344 241.542969 792.890625 236.394531 802.109375 226.09375 C 811.519531 215.796875 816.222656 202.1875 816.222656 185.265625 C 816.222656 168.164062 811.519531 154.554688 802.109375 144.4375 C 792.890625 134.140625 780.527344 128.988281 765.03125 128.988281 C 749.347656 128.988281 736.808594 134.046875 727.398438 144.164062 C 718.175781 154.277344 713.5625 167.980469 713.5625 185.265625 C 713.5625 202.371094 718.175781 216.070312 727.398438 226.371094 C 736.808594 236.488281 749.347656 241.542969 765.03125 241.542969 Z M 765.03125 241.542969 " fill-opacity="1"/><path fill="rgb(23.139954%, 34.899902%, 59.609985%)" d="M 795.921875 186.9375 C 795.921875 187.859375 795.875 188.78125 795.785156 189.699219 C 795.695312 190.617188 795.558594 191.527344 795.378906 192.429688 C 795.199219 193.335938 794.972656 194.226562 794.707031 195.109375 C 794.4375 195.992188 794.125 196.859375 793.773438 197.710938 C 793.417969 198.5625 793.023438 199.394531 792.585938 200.207031 C 792.152344 201.023438 791.675781 201.8125 791.164062 202.578125 C 790.648438 203.34375 790.097656 204.085938 789.511719 204.796875 C 788.925781 205.507812 788.304688 206.191406 787.652344 206.84375 C 786.996094 207.496094 786.3125 208.113281 785.597656 208.699219 C 784.882812 209.285156 784.140625 209.832031 783.371094 210.34375 C 782.605469 210.855469 781.8125 211.332031 780.996094 211.765625 C 780.179688 212.199219 779.34375 212.59375 778.492188 212.945312 C 777.636719 213.296875 776.765625 213.609375 775.882812 213.875 C 774.996094 214.144531 774.101562 214.367188 773.195312 214.546875 C 772.289062 214.726562 771.375 214.863281 770.453125 214.953125 C 769.53125 215.042969 768.609375 215.089844 767.6875 215.089844 C 766.761719 215.089844 765.839844 215.042969 764.917969 214.953125 C 763.996094 214.863281 763.085938 214.726562 762.175781 214.546875 C 761.269531 214.367188 760.375 214.144531 759.488281 213.875 C 758.605469 213.609375 757.734375 213.296875 756.878906 212.945312 C 756.027344 212.59375 755.191406 212.199219 754.375 211.765625 C 753.558594 211.332031 752.769531 210.855469 752 210.34375 C 751.230469 209.832031 750.488281 209.285156 749.773438 208.699219 C 749.058594 208.113281 748.375 207.496094 747.71875 206.84375 C 747.066406 206.191406 746.445312 205.507812 745.859375 204.796875 C 745.273438 204.085938 744.722656 203.34375 744.207031 202.578125 C 743.695312 201.8125 743.21875 201.023438 742.785156 200.207031 C 742.347656 199.394531 741.953125 198.5625 741.597656 197.710938 C 741.246094 196.859375 740.933594 195.992188 740.664062 195.109375 C 740.398438 194.226562 740.171875 193.335938 739.992188 192.429688 C 739.8125 191.527344 739.675781 190.617188 739.585938 189.699219 C 739.496094 188.78125 739.449219 187.859375 739.449219 186.9375 C 739.449219 186.015625 739.496094 185.097656 739.585938 184.179688 C 739.675781 183.261719 739.8125 182.351562 739.992188 181.445312 C 740.171875 180.542969 740.398438 179.648438 740.664062 178.765625 C 740.933594 177.886719 741.246094 177.019531 741.597656 176.167969 C 741.953125 175.316406 742.347656 174.480469 742.785156 173.667969 C 743.21875 172.855469 743.695312 172.066406 744.207031 171.300781 C 744.722656 170.535156 745.273438 169.792969 745.859375 169.082031 C 746.445312 168.367188 747.066406 167.6875 747.71875 167.035156 C 748.375 166.382812 749.058594 165.765625 749.773438 165.179688 C 750.488281 164.59375 751.230469 164.046875 752 163.535156 C 752.769531 163.019531 753.558594 162.546875 754.375 162.113281 C 755.191406 161.679688 756.027344 161.285156 756.878906 160.933594 C 757.734375 160.578125 758.605469 160.269531 759.488281 160 C 760.375 159.734375 761.269531 159.511719 762.175781 159.332031 C 763.085938 159.148438 763.996094 159.015625 764.917969 158.925781 C 765.839844 158.835938 766.761719 158.789062 767.6875 158.789062 C 768.609375 158.789062 769.53125 158.835938 770.453125 158.925781 C 771.375 159.015625 772.289062 159.148438 773.195312 159.332031 C 774.101562 159.511719 774.996094 159.734375 775.882812 160 C 776.765625 160.269531 777.636719 160.578125 778.492188 160.933594 C 779.34375 161.285156 780.179688 161.679688 780.996094 162.113281 C 781.8125 162.546875 782.605469 163.019531 783.371094 163.535156 C 784.140625 164.046875 784.882812 164.59375 785.597656 165.179688 C 786.3125 165.765625 786.996094 166.382812 787.652344 167.035156 C 788.304688 167.6875 788.925781 168.367188 789.511719 169.082031 C 790.097656 169.792969 790.648438 170.535156 791.164062 171.300781 C 791.675781 172.066406 792.152344 172.855469 792.585938 173.667969 C 793.023438 174.480469 793.417969 175.316406 793.773438 176.167969 C 794.125 177.019531 794.4375 177.886719 794.707031 178.765625 C 794.972656 179.648438 795.199219 180.542969 795.378906 181.445312 C 795.558594 182.351562 795.695312 183.261719 795.785156 184.179688 C 795.875 185.097656 795.921875 186.015625 795.921875 186.9375 Z M 795.921875 186.9375 " fill-opacity="1"/><g clip-path="url(#id1)"><path fill="rgb(82.749939%, 87.838745%, 98.039246%)" d="M 767.179688 143.433594 C 742.792969 143.433594 723.003906 163.226562 723.003906 187.609375 C 723.003906 211.992188 742.792969 231.785156 767.179688 231.785156 C 791.5625 231.785156 811.355469 211.992188 811.355469 187.609375 C 811.355469 163.226562 791.5625 143.433594 767.179688 143.433594 Z M 767.179688 99.257812 C 718.367188 99.257812 678.828125 138.796875 678.828125 187.609375 C 678.828125 236.421875 718.367188 275.960938 767.179688 275.960938 C 815.992188 275.960938 855.527344 236.421875 855.527344 187.609375 C 855.527344 138.796875 815.992188 99.257812 767.179688 99.257812 Z M 767.179688 258.289062 C 728.128906 258.289062 696.5 226.660156 696.5 187.609375 C 696.5 148.558594 728.128906 116.929688 767.179688 116.929688 C 806.230469 116.929688 837.859375 148.558594 837.859375 187.609375 C 837.859375 226.660156 806.230469 258.289062 767.179688 258.289062 Z M 767.179688 258.289062 " fill-opacity="1"/></g></svg>